<?xml version='1.0' encoding='UTF-8' standalone='no'?>
<svg viewBox="0 0 3507 2480" baseProfile="tiny" xmlns:xlink="http://www.w3.org/1999/xlink" version="1.2" xmlns:inkscape="http://www.inkscape.org/namespaces/inkscape" xmlns="http://www.w3.org/2000/svg" width="296.926mm" height="209.973mm">
 <defs/>
 <g id="Página" inkscape:groupmode="layer" fill="none" inkscape:label="Página" stroke-linejoin="bevel" stroke="black" stroke-width="1" fill-rule="evenodd" stroke-linecap="square">
  <g font-family="MS Shell Dlg 2" transform="matrix(1,0,0,1,0,0)" fill="none" font-size="34.375" stroke-linejoin="bevel" stroke="#000000" font-style="normal" stroke-width="1" font-weight="400" stroke-linecap="square" stroke-opacity="1"/>
  <g font-family="MS Shell Dlg 2" transform="matrix(1,0,0,1,0,0)" fill="none" font-size="34.375" stroke-linejoin="bevel" stroke="#000000" font-style="normal" stroke-width="1" font-weight="400" stroke-linecap="square" stroke-opacity="1"/>
  <g font-family="MS Shell Dlg 2" transform="matrix(11.8081,0,0,11.8081,0,0)" fill="none" font-size="34.375" stroke-linejoin="bevel" stroke="#000000" font-style="normal" stroke-width="1" font-weight="400" stroke-linecap="square" stroke-opacity="1"/>
  <g font-family="MS Shell Dlg 2" transform="matrix(0.999751,0,0,0.999751,0,0)" fill="none" font-size="34.375" stroke-linejoin="bevel" stroke="#000000" font-style="normal" stroke-width="1" font-weight="400" stroke-linecap="square" stroke-opacity="1"/>
  <g font-family="MS Shell Dlg 2" transform="matrix(0.999751,0,0,0.999751,0,0)" fill="#ffffff" font-size="34.375" stroke="none" font-style="normal" fill-opacity="1" font-weight="400">
   <path d="M-2,-2 L3510,-2 L3510,2483 L-2,2483 L-2,-2" vector-effect="none" fill-rule="evenodd"/>
  </g>
  <g font-family="MS Shell Dlg 2" transform="matrix(0.999751,0,0,0.999751,0,0)" fill="none" font-size="34.375" stroke-linejoin="bevel" stroke="#000000" font-style="normal" stroke-width="1" font-weight="400" stroke-linecap="square" stroke-opacity="1"/>
  <g font-family="MS Shell Dlg 2" transform="matrix(11.8081,0,0,11.8081,0,0)" fill="none" font-size="34.375" stroke-linejoin="bevel" stroke="#000000" font-style="normal" stroke-width="1" font-weight="400" stroke-linecap="square" stroke-opacity="1"/>
  <g font-family="MS Shell Dlg 2" transform="matrix(11.8081,0,0,11.8081,0,0)" fill="none" font-size="34.375" stroke-linejoin="bevel" stroke="#000000" font-style="normal" stroke-width="1" font-weight="400" stroke-linecap="square" stroke-opacity="1"/>
  <g font-family="MS Shell Dlg 2" transform="matrix(1,0,0,1,0,0)" fill="none" font-size="34.375" stroke-linejoin="bevel" stroke="#000000" font-style="normal" stroke-width="1" font-weight="400" stroke-linecap="square" stroke-opacity="1"/>
 </g>
 <defs/>
 <g id="Mapa 1: Fondo" inkscape:groupmode="layer" fill="none" inkscape:label="Mapa 1: Fondo" stroke-linejoin="bevel" stroke="black" stroke-width="1" fill-rule="evenodd" stroke-linecap="square">
  <g font-family="MS Shell Dlg 2" transform="matrix(1,0,0,1,0,0)" fill="none" font-size="34.375" stroke-linejoin="bevel" stroke="#000000" font-style="normal" stroke-width="1" font-weight="400" stroke-linecap="square" stroke-opacity="1"/>
  <g font-family="MS Shell Dlg 2" transform="matrix(1,0,0,1,0,0)" fill="none" font-size="34.375" stroke-linejoin="bevel" stroke="#000000" font-style="normal" stroke-width="1" font-weight="400" stroke-linecap="square" stroke-opacity="1"/>
  <g font-family="MS Shell Dlg 2" transform="matrix(11.8081,0,0,11.8081,1.20915e-15,0)" fill="none" font-size="34.375" stroke-linejoin="bevel" stroke="#000000" font-style="normal" stroke-width="1" font-weight="400" stroke-linecap="square" stroke-opacity="1"/>
  <g font-family="MS Shell Dlg 2" transform="matrix(11.8081,0,0,11.8081,1.20915e-15,0)" fill="#ffffff" font-size="34.375" stroke="none" font-style="normal" fill-opacity="1" font-weight="400">
   <path d="M0,0 L297,0 L297,210 L0,210 L0,0" vector-effect="none" fill-rule="evenodd"/>
  </g>
  <g font-family="MS Shell Dlg 2" transform="matrix(11.8081,0,0,11.8081,1.20915e-15,0)" fill="none" font-size="34.375" stroke-linejoin="bevel" stroke="#000000" font-style="normal" stroke-width="1" font-weight="400" stroke-linecap="square" stroke-opacity="1"/>
  <g font-family="MS Shell Dlg 2" transform="matrix(11.8081,0,0,11.8081,1.20915e-15,0)" fill="none" font-size="34.375" stroke-linejoin="bevel" stroke="#000000" font-style="normal" stroke-width="1" font-weight="400" stroke-linecap="square" stroke-opacity="1"/>
  <g font-family="MS Shell Dlg 2" transform="matrix(11.8081,0,0,11.8081,1.20915e-15,0)" fill="none" font-size="34.375" stroke-linejoin="bevel" stroke="#000000" font-style="normal" stroke-width="1" font-weight="400" stroke-linecap="square" stroke-opacity="1"/>
  <g font-family="MS Shell Dlg 2" transform="matrix(11.8081,0,0,11.8081,1.20915e-15,0)" fill="none" font-size="34.375" stroke-linejoin="bevel" stroke="#000000" font-style="normal" stroke-width="1" font-weight="400" stroke-linecap="square" stroke-opacity="1"/>
  <g font-family="MS Shell Dlg 2" transform="matrix(1,0,0,1,0,0)" fill="none" font-size="34.375" stroke-linejoin="bevel" stroke="#000000" font-style="normal" stroke-width="1" font-weight="400" stroke-linecap="square" stroke-opacity="1"/>
  <g font-family="MS Shell Dlg 2" transform="matrix(11.8081,0,0,11.8081,1.20915e-15,0)" fill="none" font-size="34.375" stroke-linejoin="bevel" stroke="#000000" font-style="normal" stroke-width="1" font-weight="400" stroke-linecap="square" stroke-opacity="1"/>
  <g font-family="MS Shell Dlg 2" transform="matrix(11.8081,0,0,11.8081,1.20915e-15,0)" fill="none" font-size="34.375" stroke-linejoin="bevel" stroke="#000000" font-style="normal" stroke-width="1" font-weight="400" stroke-linecap="square" stroke-opacity="1"/>
  <g font-family="MS Shell Dlg 2" transform="matrix(1,0,0,1,0,0)" fill="none" font-size="34.375" stroke-linejoin="bevel" stroke="#000000" font-style="normal" stroke-width="1" font-weight="400" stroke-linecap="square" stroke-opacity="1"/>
 </g>
 <defs/>
 <g id="Mapa 1: Lim_Mun_Base — Lim_Mun" inkscape:groupmode="layer" fill="none" inkscape:label="Mapa 1: Lim_Mun_Base — Lim_Mun" stroke-linejoin="bevel" stroke="black" stroke-width="1" fill-rule="evenodd" stroke-linecap="square">
  <g font-family="MS Shell Dlg 2" transform="matrix(1,0,0,1,0,0)" fill="none" font-size="34.375" stroke-linejoin="bevel" stroke="#000000" font-style="normal" stroke-width="1" font-weight="400" stroke-linecap="square" stroke-opacity="1"/>
  <g font-family="MS Shell Dlg 2" transform="matrix(1,0,0,1,0,0)" fill="none" font-size="34.375" stroke-linejoin="bevel" stroke="#000000" font-style="normal" stroke-width="1" font-weight="400" stroke-linecap="square" stroke-opacity="1"/>
  <g font-family="MS Shell Dlg 2" transform="matrix(11.8081,0,0,11.8081,1.20915e-15,0)" fill="none" font-size="34.375" stroke-linejoin="bevel" stroke="#000000" font-style="normal" stroke-width="1" font-weight="400" stroke-linecap="square" stroke-opacity="1"/>
  <g font-family="MS Shell Dlg 2" transform="matrix(11.8081,0,0,11.8081,1.20915e-15,0)" fill="none" font-size="34.375" stroke-linejoin="bevel" stroke="#000000" font-style="normal" stroke-width="1" font-weight="400" stroke-linecap="square" stroke-opacity="1"/>
  <g font-family="MS Shell Dlg 2" transform="matrix(0.999751,0,0,0.999751,1.20915e-15,0)" fill="#000000" font-size="34.375" stroke="none" font-style="normal" fill-opacity="0" font-weight="400">
   <rect x="0" y="0" width="3508" height="2480"/>
  </g>
  <g font-family="MS Shell Dlg 2" transform="matrix(0.999751,0,0,0.999751,1.20915e-15,0)" fill="none" font-size="34.375" stroke-linejoin="bevel" stroke="#000000" font-style="normal" stroke-width="1" font-weight="400" stroke-linecap="square" stroke-opacity="1"/>
  <g font-family="MS Shell Dlg 2" transform="matrix(0.999751,0,0,0.999751,1.20915e-15,0)" fill="#91522d" font-size="34.375" stroke-linejoin="bevel" stroke="#232323" font-style="normal" stroke-width="3.07087" fill-opacity="0" font-weight="400" stroke-linecap="square" stroke-opacity="1">
   <path d="M1427.25,186.703 L1414.24,188.77 L1411.26,187.766 L1410.92,188.829 L1412.02,189.674 L1411.46,192.521 L1407.79,199.654 L1405.34,205.73 L1403.82,214.479 L1403.98,217.632 L1404.85,218.976 L1404.24,216.395 L1404.75,216.395 L1404.53,214.592 L1404.9,215.175 L1405.18,219.042 L1404.6,226.806 L1405.14,232.92 L1404.66,235.897 L1405.84,236.06 L1406.01,235.349 L1409.8,235.609 L1410.03,237.279 L1409.39,241.103 L1407.42,243.323 L1407.34,246.602 L1406.81,247.865 L1404.82,249.989 L1404.98,250.661 L1402.75,251.692 L1400.26,255.117 L1399.02,255.98 L1394.34,255.84 L1394.68,255.862 L1394.11,256.766 L1394.76,259.145 L1394.79,262.053 L1394.14,264.171 L1393.1,265.174 L1393.55,265.298 L1392.88,266.332 L1392.61,268.339 L1391.79,269.501 L1389.18,270.613 L1387.87,272.217 L1386.32,273.068 L1385.52,274.514 L1383.33,276.423 L1379.83,285.227 L1379.24,288.553 L1379.58,288.698 L1379.19,288.704 L1379.69,288.926 L1379.62,292.575 L1380.24,294.164 L1379.28,294.551 L1380.33,294.234 L1380.36,296.695 L1380.76,297.164 L1381.22,296.429 L1381.06,294.024 L1381.55,293.982 L1380.5,292.063 L1380.34,290.158 L1382.48,282.266 L1383.49,280.702 L1383.62,277.045 L1384.41,275.977 L1385.79,275.701 L1386.62,274.445 L1386.15,275.379 L1387.28,276.334 L1387.05,277.501 L1387.68,278.193 L1387.8,284.575 L1387.28,286.351 L1387.9,289.396 L1387.57,290.671 L1386.3,291.881 L1387.07,293.109 L1386.5,293.069 L1386.33,293.84 L1386.81,296.54 L1387.78,297.802 L1386.52,299.502 L1387.39,300.171 L1387.26,301.933 L1385.2,305.154 L1385.58,309.524 L1384.37,317.361 L1384.72,320.431 L1384.09,321.956 L1385.17,322.97 L1384.39,322.979 L1384.77,323.287 L1384.21,325.558 L1384.67,325.945 L1384.27,326.278 L1384.15,328.477 L1383.12,329.857 L1383.54,330.106 L1383.07,330.549 L1383.54,332.437 L1382.02,333.367 L1382.3,333.548 L1381.04,335.555 L1381.04,337.637 L1379.81,339.562 L1379.71,340.422 L1380.27,340.66 L1378.85,342.043 L1378.14,343.588 L1378.25,344.74 L1379.39,345.379 L1380.3,345.106 L1379.89,345.599 L1380.42,346.342 L1379.34,346.529 L1377.87,347.877 L1378.2,348.349 L1377.37,349.51 L1377.82,350.542 L1377.31,351.899 L1377.52,352.74 L1375.41,354.454 L1375.31,355.323 L1374.45,356.097 L1374.7,357.739 L1373.71,359.045 L1373.21,361.255 L1374.21,362.587 L1373.62,362.494 L1372.85,363.766 L1373.34,364.241 L1372.73,365.136 L1373.17,365.701 L1372.19,365.448 L1371.59,367.171 L1370.44,367.711 L1369.77,369.95 L1370.16,370.526 L1368.09,373.646 L1368.11,375.671 L1367.41,375.828 L1366.43,377.737 L1366.7,378.012 L1363.31,381.379 L1362.33,383.276 L1362.53,383.908 L1362.07,383.778 L1361.8,384.404 L1362.09,386.358 L1360.69,388.404 L1360.18,391.636 L1359.48,393.085 L1360.02,393.359 L1359.44,393.67 L1359.68,394.653 L1358.88,395.296 L1359.23,395.75 L1357.7,398.116 L1357.6,399.271 L1357.12,399.462 L1356.61,402.371 L1354.77,404.774 L1354.01,407.195 L1353.8,409.075 L1354.94,410.089 L1354.11,410.496 L1353.23,412.592 L1352.83,415.967 L1352.03,417.155 L1352.42,417.959 L1349.16,424.75 L1349.34,427.737 L1349.92,428.029 L1350.32,427.271 L1350.97,427.442 L1350.35,427.632 L1350.44,428.381 L1349,430.821 L1349.35,438.521 L1348.87,441.381 L1349.25,442.307 L1350.14,442.694 L1351.56,440.881 L1353.81,439.639 L1352.63,438.146 L1354.44,437.985 L1354.55,437.223 L1356.22,437.634 L1356.92,438.392 L1356.81,439.457 L1357.71,440.917 L1359.94,442.458 L1360.79,442.398 L1361.81,443.422 L1364.67,443.325 L1365.94,441.115 L1365.86,442.555 L1366.51,443.148 L1365.69,443.302 L1365.83,444.03 L1364.41,445.476 L1363.76,445.327 L1361.6,447.636 L1359.83,448.38 L1358.7,448.273 L1356.46,445.359 L1354.71,446.114 L1351.75,444.078 L1350.26,444.265 L1348.95,447.529 L1349.81,449.002 L1350.16,453.171 L1351.23,454.655 L1352.3,453.167 L1353.24,453.45 L1352.98,454.401 L1353.93,455.883 L1354.2,458.105 L1355.28,458.768 L1354.71,459.169 L1354.84,461.463 L1356.14,463.503 L1355.56,463.877 L1355.94,464.566 L1355.51,465.155 L1355.05,465.004 L1354.89,466.05 L1354.24,465.911 L1353.76,467.261 L1352.96,467.393 L1352.8,468.613 L1353.53,469.652 L1352.84,471.223 L1353.72,474.85 L1355.46,476.163 L1354.28,476.56 L1355.29,479.327 L1355.37,481.753 L1355.78,482.021 L1355.28,487.057 L1355.85,487.195 L1358.09,485.59 L1358.58,486.645 L1359.41,486.727 L1358.67,487.466 L1357.03,487.429 L1356.57,487.983 L1356.96,488.832 L1356.61,489.922 L1358.11,494.322 L1358.18,496.179 L1358.27,495.509 L1358.51,495.455 L1358.91,497.36 L1358.48,498.479 L1359.2,499.04 L1358.82,500.227 L1359.73,503.691 L1360.23,503.775 L1360.27,505.716 L1360.98,506.574 L1360.65,507.756 L1361.5,508.267 L1360.86,508.406 L1360.97,510.331 L1359.73,511.937 L1360.37,512.087 L1359.74,512.407 L1359.9,514.102 L1359.23,514.987 L1359.22,516.194 L1357.08,519.749 L1357.07,520.843 L1357.5,521.096 L1356.8,521.17 L1356.36,523.732 L1355.54,525.205 L1354.82,525.542 L1355.73,526.739 L1357.41,526.189 L1358.24,527.068 L1354.56,528.831 L1353.7,530.283 L1352.78,530.08 L1352.72,531.026 L1354.03,531.18 L1353.79,531.782 L1355.06,533.629 L1356.19,537.246 L1357.73,537.844 L1357.03,537.841 L1356.75,538.851 L1357.24,540.34 L1356.47,541.963 L1356.97,544.769 L1356.04,547.165 L1355.53,551.078 L1356.07,553.865 L1357.15,555.384 L1357.16,558.079 L1357.85,558.632 L1357.19,558.67 L1357.44,561.135 L1356.66,563.733 L1357.03,565.684 L1356.74,567.397 L1357.23,567.607 L1356.64,568.538 L1357.43,570.337 L1356.77,570.325 L1357.37,570.849 L1356.45,574.005 L1356.76,574.615 L1355.86,575.574 L1355.62,577.534 L1355.97,580.059 L1356.57,580.366 L1356.21,580.682 L1356.12,583.798 L1356.47,586.455 L1357.29,587.892 L1357.99,591.752 L1357.18,594.282 L1357.76,597.78 L1358.36,598.484 L1358,598.895 L1358.55,601.133 L1358.13,602.324 L1358.53,603.745 L1358.2,606.231 L1358.96,608.37 L1358.52,608.986 L1358.58,611.23 L1359.19,611.81 L1358.28,613.161 L1357.56,615.912 L1359.89,616.936 L1362.05,619.301 L1443.52,590.704 L1443.97,587.526 L1490.17,593.056 L1491.68,588.76 L1506.74,591.713 L1506.35,594.559 L1514.09,595.555 L1514.97,583.245 L1529.07,585.1 L1529.94,578.08 L1537.79,578.554 L1534.28,607.945 L1567.97,611.637 L1569.66,601.498 L1568.8,597.622 L1566.39,594.639 L1567.98,590.162 L1572.72,593.435 L1582.75,589.863 L1582.47,582.339 L1587.76,583.028 L1588.07,580.602 L1609.56,582.504 L1608.83,585.181 L1612.31,586.724 L1611.5,588.484 L1624.48,590.655 L1625.01,604.943 L1627.9,616.022 L1629.21,615.983 L1628.85,618.898 L1633.77,620.858 L1634.73,622.279 L1642.15,620.656 L1642.19,621.411 L1649.25,622.677 L1649.03,642.27 L1650.76,643.475 L1652.16,645.842 L1655.56,646.605 L1656.07,646.078 L1669.9,647.806 L1669.29,641.159 L1670.68,617.605 L1680.85,617.815 L1680.32,609.458 L1692.33,615.409 L1692.83,605.562 L1709.31,608.86 L1705.84,629.302 L1690.46,655.263 L1738.25,667.849 L1730.45,683.424 L1760,685.491 L1767.67,620.175 L1765.95,619.897 L1765.99,617.132 L1769.43,591.909 L1747.21,590.505 L1749.29,567.125 L1771.16,567.431 L1665.58,432 L1664.66,438.547 L1655.31,438.74 L1649.24,442.261 L1643.02,444.749 L1641.75,445.949 L1637.68,450.442 L1636.44,453.015 L1636.34,454.007 L1636.98,454.279 L1636.32,455.331 L1635.85,455.098 L1633.12,460.822 L1631.96,468.65 L1626.29,467.966 L1625.53,473.897 L1604.09,473.879 L1603.8,473.05 L1601.49,471.685 L1599.77,469.651 L1592.68,466.136 L1586.11,463.643 L1584.65,461.796 L1584.09,464.116 L1574.36,462.798 L1566.27,462.619 L1560.62,463.502 L1554.85,465.471 L1549.89,465.962 L1550.85,449.614 L1519.45,443.226 L1526.09,410.201 L1520.53,409.707 L1522.61,393.652 L1518.99,393.282 L1519.22,392.444 L1455.28,395.179 L1455.28,371.41 L1451.53,386.774 L1422.62,385.496 L1427.25,186.703" vector-effect="none" fill-rule="evenodd"/>
   <path d="M1369.42,340.795 L1370.7,333.483 L1372.76,327.669 L1373,325.352 L1372.98,324.216 L1371.79,321.652 L1369.89,319.342 L1369.01,321.104 L1369.52,324.66 L1367.87,333.73 L1364.43,342.967 L1364.38,345.652 L1365.03,348.686 L1366.42,351.534 L1366.91,355.555 L1369.1,356.451 L1369.13,352.794 L1367.96,351.793 L1367.7,349.837 L1366.66,348.067 L1368.19,342.93 L1369.42,340.795" vector-effect="none" fill-rule="evenodd"/>
   <path d="M1380.42,301.116 L1380.77,298.071 L1379.78,297.259 L1378.92,294.842 L1376.91,291.724 L1376.65,294.426 L1373.66,298.866 L1374.08,299.355 L1372.44,301.591 L1371.71,304.009 L1372.4,309.633 L1377.5,313.282 L1378.31,315.507 L1379.77,317.424 L1380.67,314.552 L1380.44,311.76 L1381.39,311.285 L1381.23,307.793 L1380.52,306.115 L1379.59,305.741 L1378.67,306.352 L1378.02,304.77 L1378.26,303.384 L1379.28,303.372 L1380.82,305.469 L1381.59,305.187 L1381.48,303.298 L1380.42,301.116" vector-effect="none" fill-rule="evenodd"/>
   <path d="M1375.23,329.345 L1375.15,327.259 L1375.74,325.398 L1375.02,317.679 L1372.21,315.743 L1370.02,315.702 L1369.41,317.279 L1370.9,319.27 L1373.31,321.055 L1374.13,323.089 L1374.7,325.888 L1374.51,328.632 L1375.23,329.345" vector-effect="none" fill-rule="evenodd"/>
   <path d="M1352.42,530.092 L1352.96,529.136 L1352.39,528.653 L1351.39,528.868 L1351.36,529.573 L1352.42,530.092" vector-effect="none" fill-rule="evenodd"/>
   <path d="M1445.62,788.832 L1427.04,785.425 L1426.85,787.4 L1421.72,786.895 L1421.07,793.715 L1395.93,791.778 L1384.09,789.131 L1383.35,788.048 L1382.76,788.074 L1380.61,791.006 L1380.32,793.619 L1380.81,794.174 L1379.62,796.173 L1377.29,798.348 L1377.78,800.867 L1376.2,802.964 L1376.32,804.61 L1374.86,806.199 L1374.74,808.774 L1373.64,807.979 L1372.43,808.372 L1368.29,812.341 L1367.57,814.177 L1368.2,815.803 L1367.62,815.751 L1366.37,817.659 L1366.71,817.739 L1365.97,818.773 L1365.7,818.533 L1365.25,821.805 L1361.61,825.952 L1359.56,831.196 L1358.05,833.279 L1355.09,839.413 L1352.8,839.679 L1350.42,842.2 L1349.86,845.556 L1346.42,849.659 L1345.05,852.275 L1338.68,855.546 L1339.19,855.647 L1337.01,857.222 L1332.1,852.385 L1330.6,853.854 L1330.43,854.165 L1331.92,852.672 L1332.41,853.195 L1331.1,854.439 L1330.74,854.198 L1331.28,854.781 L1332.83,853.351 L1334.92,855.494 L1334.27,856.119 L1335.48,857.356 L1336.01,856.844 L1336.61,857.45 L1328.65,860.988 L1319.69,870.209 L1318.74,870.283 L1319.02,870.754 L1315.04,873.852 L1314.18,873.304 L1314.7,873.823 L1312.91,874.643 L1313.07,875.141 L1312.49,875.681 L1310.76,876.172 L1306.05,879.342 L1305.12,878.367 L1305.65,879.332 L1305.25,879.824 L1304.59,878.545 L1305.11,879.892 L1296.9,884.828 L1296.21,885.059 L1295.69,884.545 L1296.03,885.489 L1293.41,887.388 L1292.92,887.362 L1291.49,885.269 L1292.42,887.042 L1290.26,888.353 L1289.86,887.838 L1288.3,888.067 L1289.78,887.958 L1290.35,888.75 L1289.3,889.442 L1288.79,888.69 L1288.19,889.09 L1288.01,891.183 L1285.3,893.258 L1284.68,893.526 L1284.43,893.153 L1284.19,893.287 L1284.47,893.633 L1283.76,894.357 L1279.98,897.058 L1279.61,896.843 L1278.54,897.21 L1279.7,896.989 L1279.31,898.036 L1278.36,898.466 L1278.23,897.527 L1278.06,897.406 L1277.93,897.407 L1278.22,897.588 L1278.21,898.778 L1278.05,898.709 L1278.01,897.647 L1277.98,897.614 L1277.61,898.986 L1276.85,899.379 L1276.43,898.943 L1276.24,899.635 L1273.02,900.962 L1272.22,900.775 L1270.53,903.15 L1269.92,903.3 L1270.08,902.871 L1269.31,903.359 L1269.77,903.798 L1268.98,904.606 L1268.22,904.911 L1267.31,903.814 L1267.62,904.39 L1267.12,904.874 L1266.98,905.381 L1267.69,904.491 L1268.72,905.485 L1268.04,906.441 L1263.66,911.166 L1263.16,911.134 L1263.49,911.263 L1262.98,911.87 L1261.74,912.482 L1260.93,913.881 L1256.47,917.406 L1254.75,919.759 L1248.09,924.85 L1247,928.243 L1246.56,928.711 L1246.17,928.453 L1245.9,928.546 L1245.74,928.746 L1246.46,928.889 L1245.3,930.105 L1245.05,934.391 L1242.55,940.544 L1243.93,941.957 L1244.74,944.764 L1242.91,950.88 L1267.02,961.479 L1277.78,953.063 L1275.84,967.257 L1275.74,971.278 L1273.68,974.057 L1273.41,977.582 L1300.01,991.027 L1300.72,993.103 L1311.72,991.698 L1308.67,997.58 L1314.32,998.847 L1316.43,993.918 L1317.1,995.099 L1329.38,1006.63 L1344.88,1005.39 L1343.65,1020.02 L1343.8,1042.88 L1346.47,1043.83 L1347.25,1045.23 L1349.96,1046.91 L1365.04,1048.4 L1365.21,1050.11 L1381.87,1050.14 L1382.37,1043.28 L1388.13,1043.24 L1388.07,1040.03 L1389.95,1040 L1389.03,1044.34 L1395.16,1045.8 L1385.52,1072.3 L1382.66,1078.59 L1398.28,1078.39 L1409.58,1072.93 L1421.62,1068.07 L1419.47,1079.36 L1411.19,1097.77 L1419.68,1097.48 L1433.06,1096.04 L1435.18,1098.92 L1437.99,1100.24 L1409.24,1102.09 L1410.4,1109.81 L1408.38,1113.64 L1412.28,1140.86 L1427.73,1142 L1428.01,1158.01 L1433.72,1155.13 L1439.66,1142.93 L1452,1149.53 L1456.81,1146.36 L1459.97,1141.8 L1459.71,1135.32 L1456.5,1135.59 L1456.49,1126.99 L1441.5,1129.35 L1440.47,1120.89 L1449.83,1119.17 L1447.55,1114.46 L1453.53,1112.58 L1471.25,1129.81 L1471.4,1228.68 L1483.34,1228.8 L1483.53,1248.59 L1476.19,1248.65 L1476.33,1258.84 L1483.32,1258.79 L1483.34,1264.32 L1512.4,1264.1 L1517.13,1258.55 L1520.2,1258.53 L1537.7,1262.19 L1541.18,1284.65 L1554.11,1287.1 L1549.02,1264.84 L1574.93,1273.37 L1586.07,1216.95 L1591.14,1182.62 L1646.99,1186.61 L1704.6,1187.51 L1726.3,1186.71 L1723.64,1236.69 L1753.82,1237.98 L1756.44,1184.81 L1754.36,1159.02 L1716.64,1163.13 L1689.91,1149.12 L1691.12,1146.7 L1686.83,1143.2 L1688.05,1139.75 L1681.26,1135.07 L1679.68,1124.9 L1674.31,1123.86 L1675.31,1116.48 L1680.6,1118.64 L1677.59,1096.92 L1695.48,1094.33 L1700.01,1074.82 L1677.31,1066.49 L1677.25,1067.46 L1672.97,1067.07 L1669.23,1030.76 L1667.01,1030.42 L1661.8,1010.11 L1676.48,1004.72 L1678.74,984.979 L1672.9,984.322 L1674.25,981.063 L1665.92,980 L1665.67,975.058 L1660.55,973.245 L1664.49,968.486 L1662.53,968.429 L1646.12,987.385 L1623.38,980.075 L1622.97,980.703 L1613.81,979.374 L1629.36,946.273 L1631.6,947.881 L1648.35,914.163 L1635.32,904.193 L1630.96,903.14 L1626.39,902.9 L1616.79,899.923 L1606.34,894.73 L1606.34,895.856 L1598.96,892.796 L1574.42,892.22 L1574.87,889.299 L1551.25,899.581 L1537.67,898.804 L1535.43,897.545 L1540.03,893.986 L1552.39,881.195 L1548.8,876.979 L1540,868.882 L1534.6,864.792 L1529.54,866.511 L1521.73,867.191 L1518.93,868.185 L1515.63,866.785 L1506.9,860.361 L1518.4,842.148 L1516.92,822.511 L1503.75,833.092 L1494.44,835.713 L1479.26,833.023 L1471.53,803.231 L1463.09,799.982 L1448.54,796.933 L1445.62,788.832" vector-effect="none" fill-rule="evenodd"/>
   <path d="M421.205,625.292 L422.26,624.997 L422.546,624.099 L422.548,621.363 L421.712,620.619 L421.462,623.053 L420.577,624.825 L421.205,625.292" vector-effect="none" fill-rule="evenodd"/>
   <path d="M412.665,624.296 L411.14,623.726 L412.669,624.579 L412.665,624.296" vector-effect="none" fill-rule="evenodd"/>
   <path d="M426.065,628.804 L424.619,628.659 L426.067,629.084 L426.065,628.804" vector-effect="none" fill-rule="evenodd"/>
   <path d="M969.736,1416.25 L969.534,1413.91 L966.556,1414.48 L961.086,1416.25 L958.366,1419.73 L956.551,1424.14 L954.491,1425.74 L943.379,1428.68 L943.239,1429.25 L944.286,1429.89 L944.802,1431.79 L944.235,1434.15 L942.213,1436.47 L938.24,1437.18 L934.826,1440.57 L933.322,1441.05 L929.673,1440.3 L929.109,1439.28 L928.989,1436.29 L925.457,1438.27 L921.746,1437.52 L920.838,1437.78 L917.61,1439.78 L916.709,1441.05 L915.109,1438.48 L915.584,1439.41 L914.5,1440.53 L890.45,1453.54 L876.457,1460.12 L849.638,1470.94 L825.42,1482.84 L806.574,1493.56 L786.701,1505.72 L778.304,1512.14 L764.272,1528.03 L760.824,1533.26 L746.413,1550.36 L735.59,1559.05 L724.529,1569.29 L717.303,1575.16 L715.565,1578.61 L715.663,1580.35 L716.628,1582.14 L701.161,1592.98 L697.304,1590.72 L697.3,1589.25 L696.115,1586.49 L696.23,1585.31 L696.622,1585.29 L695.969,1584.54 L695.915,1583.27 L693.563,1583.49 L690.506,1585.26 L684.012,1590.48 L678.668,1593.03 L664.351,1599.4 L633.655,1611.69 L626.898,1614.91 L622.76,1617.84 L620.505,1618.65 L619.313,1621.15 L616.636,1622.58 L614.825,1624.45 L612.651,1624.91 L612.183,1625.6 L597.608,1629.25 L596.557,1630.17 L590.296,1632.45 L588.845,1633.39 L588.784,1636.39 L587.299,1638.34 L574.247,1645.64 L564.121,1649.76 L548.864,1654.48 L528.825,1659.05 L512.787,1660.43 L501.282,1660.33 L498.561,1660.96 L493.564,1667.41 L492.556,1668.04 L491.609,1667.38 L489.819,1669.74 L491.239,1668.17 L492.057,1668.8 L491.339,1669.75 L492.797,1671.95 L493.398,1671.72 L494.151,1672.41 L492.933,1673.02 L490.559,1672.18 L490.491,1672.35 L492.934,1673.17 L494.323,1672.37 L494.949,1672.87 L494.639,1673.85 L495.421,1674.32 L496.87,1672.49 L497.057,1673.81 L496.481,1674.19 L496.945,1674.89 L496.457,1674.99 L496.867,1675.41 L497.425,1675.18 L496.942,1675.83 L497.781,1675.46 L497.084,1676.04 L497.477,1676.32 L498.115,1675.45 L498.569,1675.75 L498.296,1676.18 L498.792,1675.96 L498.444,1676.47 L498.784,1676.15 L500.142,1677.19 L501.008,1678.77 L500.611,1679 L501.037,1678.82 L504.646,1683.21 L506.681,1683.61 L506.56,1684.11 L506.743,1683.61 L508.412,1683.78 L488.653,1695.67 L474.611,1692 L464.562,1686.52 L458.734,1682.44 L453.521,1677.92 L451.023,1675.37 L447.988,1671.01 L440.91,1658.19 L428.059,1640.98 L425.35,1639.8 L411.105,1638.77 L397.612,1639.11 L363.929,1642.84 L340.612,1644.29 L327.081,1645.41 L325.798,1645.94 L292.674,1647.7 L281.141,1649.68 L272.386,1650.03 L257.054,1652.5 L244.465,1652.67 L185.189,1655.92 L163.98,1657.64 L151.032,1659.58 L99.9889,1669.88 L102.35,1680.85 L101.069,1686.76 L101.06,1689.78 L101.923,1692.94 L103.841,1695.21 L108.192,1698.56 L110.69,1701.68 L110.557,1704 L112.419,1707.91 L118.145,1716.29 L120.392,1721.2 L124.34,1726.99 L127.024,1732.83 L128.51,1738.02 L128.777,1749.45 L126.909,1757.63 L126.896,1761.01 L134.76,1779.55 L137.125,1782.09 L142.434,1784.75 L144.969,1785.16 L151.151,1784.9 L153.331,1785.68 L159.302,1791.55 L165.605,1794.74 L167.684,1796.64 L169.312,1799.88 L168.471,1803.78 L168.645,1806.66 L170.164,1808.31 L173.032,1809.69 L175.321,1809.58 L176.714,1808.69 L180.782,1802.16 L183.492,1799.29 L187.151,1797.63 L192.898,1789.07 L193.556,1790.68 L193.518,1792.79 L200.503,1797.48 L200.674,1800.79 L202.005,1799.73 L222.298,1799.29 L255.862,1799.27 L267.862,1799.94 L285.883,1799.02 L267.649,1771.04 L257.783,1763.05 L265.88,1738.96 L266.59,1738.65 L276.905,1740.83 L282.597,1741.16 L288.534,1740.82 L293.578,1739.71 L298.642,1737.35 L305.787,1730.83 L307.623,1728.36 L307.817,1722.49 L307,1720.88 L307.978,1720.91 L309.158,1719.77 L310.156,1719.71 L311.748,1718.02 L318.974,1717.96 L328.393,1720.82 L330.945,1721.23 L333.11,1720.93 L339.453,1717.98 L343.46,1713.95 L344.584,1713.83 L348.926,1711.3 L349.384,1711.34 L350.183,1713.48 L352.957,1716.33 L353.256,1718.38 L352.608,1718.92 L352.285,1720.89 L351.281,1721.17 L350.775,1722.26 L349.638,1721.51 L347.288,1722.34 L347.152,1722.92 L348.494,1723.83 L349.205,1726.45 L348.992,1728 L347.596,1727.59 L346.702,1729.52 L348.672,1736.71 L348.211,1736.69 L348.678,1737.13 L347.408,1737.65 L345.316,1743.72 L375.25,1750.6 L375.23,1749.71 L376.544,1750.12 L378.814,1752.03 L379.416,1753.83 L380.069,1753.95 L380.192,1753.46 L381.692,1752.84 L383.421,1750.37 L385.01,1750.75 L386.476,1749.81 L388.542,1750.38 L389.383,1745.67 L391.073,1746.45 L390.394,1751.09 L391.266,1754.46 L392.133,1755.49 L393.909,1756.63 L397.562,1757.78 L401.443,1760.86 L410.257,1761.36 L411.106,1763.59 L413.009,1762.77 L412.583,1764 L413.285,1764.59 L413.33,1763.33 L414.973,1760.84 L418.881,1761.79 L421.985,1761.6 L422.882,1760.55 L422.866,1758.11 L423.411,1756.61 L425.069,1756.04 L426.991,1756.34 L429.004,1755.52 L430.672,1753.81 L431.726,1750.85 L433.367,1749.94 L436.471,1750.02 L437.144,1748.73 L438.384,1750.23 L439.063,1749.35 L439.133,1747.81 L444.133,1744.88 L447.797,1745.12 L449.543,1746.31 L455.734,1743.55 L460.246,1742.77 L462.601,1740.9 L464.236,1741.54 L466.791,1744.15 L471.917,1745.93 L473.269,1747 L474.774,1747.29 L475.644,1748.29 L477.185,1748.43 L478.14,1749.52 L480.867,1750.29 L484.325,1752.69 L486.358,1753.22 L487.333,1752.53 L487.677,1753.1 L488.5,1753.19 L488.285,1754.59 L488.923,1756.14 L490.516,1757.02 L492.036,1756.82 L491.746,1757.31 L492.269,1759.09 L491.74,1759.86 L492.2,1761.19 L491.55,1762.9 L492.814,1765.98 L491.791,1767.44 L487.016,1767.76 L486.055,1768.69 L485.597,1768.28 L486.218,1768.21 L485.566,1767.64 L487.172,1767.33 L485.495,1766.65 L484.647,1765.09 L484.423,1764.08 L485.279,1763.93 L485.044,1763.07 L484.253,1763.07 L482.958,1760.55 L481.183,1759.48 L479.29,1759.11 L477.026,1760.67 L475.499,1760.92 L474.355,1762.67 L473.613,1765.17 L474.026,1767.61 L475.005,1768.32 L478.501,1769.56 L483.777,1770.29 L484.668,1771.95 L486.812,1768.32 L491.1,1767.89 L492.167,1767.35 L495.18,1768.51 L498.342,1769.02 L500.619,1767.62 L502.725,1769.75 L504.844,1770.93 L507.244,1771.48 L508.411,1771.22 L511.209,1772.54 L513.638,1772.68 L517.276,1771.81 L518.852,1771.1 L519.516,1770.04 L519.921,1771.08 L521.212,1771.94 L522.009,1771.67 L523.079,1773.73 L525.37,1775.21 L526.847,1775.5 L529.021,1774.83 L529.82,1776.28 L531.924,1776.14 L537.833,1779.07 L540.185,1779.38 L541.741,1778.7 L540.942,1780.09 L538.188,1780.46 L537.605,1782.57 L536.496,1783.74 L536.696,1784.56 L535.256,1785.9 L533.772,1786.45 L533.992,1787.87 L533.65,1788.17 L534.401,1788.3 L534.691,1789.42 L532.267,1791.94 L531.063,1792.3 L531.423,1791.29 L531.923,1791.57 L532.222,1791.16 L530.592,1790.54 L530.635,1789.56 L529.591,1788.62 L529.374,1787.29 L528.778,1787.42 L527.946,1786.58 L526.653,1787.36 L516.277,1809.16 L515.562,1809.38 L512.184,1808.35 L509.4,1806.33 L506.45,1808.92 L508.694,1814 L506.791,1813.56 L502.153,1824.37 L502.656,1824.82 L500.185,1827.49 L493.734,1832.58 L493.057,1834.65 L493.616,1836.84 L494.843,1837.75 L496.746,1837.49 L497.685,1836.72 L500.891,1837.21 L487.818,1841.77 L488.456,1842.57 L488.042,1845.02 L489.325,1846.63 L489.937,1848.5 L492.036,1848.76 L492.533,1849.93 L490.983,1850.82 L491.64,1852.03 L488.42,1851.45 L488.024,1853.93 L488.973,1856.04 L489.581,1859.8 L484.046,1866.09 L485.869,1871.44 L484.033,1873.59 L470.757,1883.19 L467.064,1882.79 L465.924,1883.85 L464.901,1883.97 L463.164,1883.71 L461.661,1882.24 L457.207,1882.47 L451.869,1885.68 L443.234,1892.57 L443.68,1894.97 L445.492,1898.93 L457.29,1911.96 L463.421,1902.91 L495.398,1886.1 L499.607,1889.19 L502.111,1890.38 L506.139,1890.76 L505.174,1889.47 L506.453,1888.2 L507.816,1889.49 L508.479,1892 L508.033,1893.78 L504.787,1894.52 L503.545,1895.79 L504.443,1899.94 L506.703,1901.64 L506.696,1902.58 L505.662,1903.74 L503.347,1904.81 L502.806,1908.13 L503.566,1909.63 L503.022,1912.03 L505.218,1914.7 L504.817,1916.91 L505.317,1921.24 L504.623,1924.02 L504.82,1925.34 L506.316,1928.1 L505.69,1929.65 L507.056,1931.43 L508.438,1932.06 L510.623,1935.22 L510.753,1936.08 L510.045,1937.24 L510.245,1938.88 L511.277,1939.23 L511.38,1940.58 L512.846,1942.2 L511.985,1943.1 L512.072,1943.81 L513.063,1944.18 L514.231,1945.95 L515.762,1946.81 L515.868,1948.3 L514.972,1948.41 L514.615,1949.3 L513.614,1949.58 L513.08,1950.83 L514.645,1951.47 L514.602,1952.59 L515.349,1954.03 L517.42,1954.17 L516.91,1955.08 L517.687,1955.91 L517.415,1957.16 L517.871,1956.9 L518.944,1957.79 L519.757,1957.69 L519.878,1958.53 L520.618,1958.71 L520.945,1959.54 L521.596,1959.24 L521.928,1959.81 L522.486,1959.7 L522.947,1961.35 L523.78,1961.97 L523.771,1962.63 L523.079,1963.09 L523.553,1963.84 L521.982,1967.65 L522.197,1968.6 L521.484,1969.2 L522.163,1969.71 L521.863,1970.36 L522.625,1971.38 L522.206,1972.84 L522.935,1974 L522.291,1974.36 L522.731,1974.97 L522.068,1975.18 L522.132,1976.08 L525.314,1977.87 L526.914,1978.09 L529.407,1980.95 L533.477,1983.27 L535.367,1986.17 L537.315,1987.12 L538.241,1988.82 L538.848,1988.83 L539.751,2008.47 L541.988,2031.21 L547.991,2030.63 L545.874,2006.55 L542.992,1991.77 L555.133,1981.81 L562.759,1994.93 L565.2,1993.15 L566.567,1995.38 L566.305,1997.13 L566.799,2002 L554.022,2005.05 L559.546,2021.09 L567.687,2037.58 L567.771,2041.21 L567.748,2063.15 L549.789,2068.02 L555.578,2083.28 L571.26,2093.16 L588.39,2093.81 L615.479,2089.89 L614.984,2093.9 L554.381,2098.83 L554.742,2103.1 L555.637,2103.05 L556.09,2109.12 L577.073,2131.66 L563.765,2148.1 L564.823,2149.41 L572.408,2154.45 L572.399,2155.9 L580.465,2157.8 L580.196,2159.62 L604.397,2174.66 L627.216,2189.64 L631.064,2182.8 L630.067,2182.2 L633.381,2174.17 L631.83,2173.49 L630.848,2168.9 L634.247,2167.28 L639.567,2166.1 L640.744,2165.03 L643.791,2163.63 L639.401,2159.44 L637.862,2143.83 L636.151,2139.49 L638.667,2136.99 L638.696,2134.31 L639.306,2133.81 L638.202,2131.13 L639.682,2123.61 L639.169,2121.21 L641.363,2115.7 L641.817,2112.77 L640.894,2107.48 L641.076,2105.54 L640.275,2103.47 L641.016,2102.61 L639.33,2100.41 L639.629,2093.78 L641.471,2091.29 L641.566,2090.1 L640.736,2089.3 L642.644,2086.32 L642.345,2084.67 L642.964,2083.71 L642.163,2081.48 L643.197,2076.26 L644.073,2075.41 L643.62,2074.68 L643.899,2073.35 L642.975,2072.78 L643.244,2071.14 L642.485,2070.54 L642.525,2069.46 L639.957,2067.87 L639.61,2064.86 L640.71,2063.65 L642.358,2060.25 L646.167,2058.39 L647.053,2055.71 L646.628,2055.23 L647.525,2053.31 L647.026,2052.28 L647.948,2049.38 L647.217,2046.75 L645.741,2045.89 L646.243,2043.97 L645.639,2044.45 L645.322,2044.15 L646.045,2042.77 L645.332,2042.75 L644.908,2042.02 L645.731,2041.38 L645.829,2039.71 L647.107,2037.7 L648.567,2036.76 L648.513,2035.79 L649.246,2035.21 L649.819,2033.49 L650.744,2034.07 L653.304,2032.88 L656.668,2034.2 L658.562,2033.04 L658.62,2031 L657.744,2030.54 L658.278,2028.63 L657.318,2027.89 L656.897,2026.7 L657.267,2025.54 L654.987,2023.6 L654.823,2021.84 L655.898,2021.01 L656.042,2019.84 L657.086,2019.38 L656.949,2018.28 L659.872,2019.16 L663.785,2015.11 L664.678,2015.59 L669.527,2010.59 L662.838,2003.6 L663.905,2003.02 L664.15,2002.06 L663.775,2001.46 L664.493,1999.87 L665.823,1999.26 L669.178,2000.77 L670.923,2000.46 L672.794,1999.11 L673.411,2000.03 L674.338,1999.37 L676.297,2000.18 L678.258,2000.01 L680.037,2000.86 L680.723,2000.02 L681.874,1999.78 L693.471,2007.81 L699.812,1998.63 L700.859,1997.9 L701.497,1998.81 L702.608,1998.22 L702.442,1996.88 L702.885,1996.59 L702.39,1996.29 L704.419,1995.08 L704.113,1994.23 L704.905,1993.7 L705.332,1991.96 L706.9,1991.7 L706.645,1992.39 L707.258,1992.62 L708.231,1991.87 L709.27,1992.21 L709.147,1991.21 L710.767,1991.56 L711.909,1994.1 L713.329,1995.17 L712.307,1997.74 L713.86,2000.03 L714.206,2001.53 L713.907,2002.34 L705.726,2001.94 L704.888,2018.29 L711.748,2018.62 L712.019,2020.47 L713.699,2021.12 L712.322,2023.03 L714.155,2023.73 L713.103,2025.06 L714.262,2026.4 L712.701,2026.35 L712.826,2027.67 L714.499,2026.85 L715.013,2027.1 L714.677,2027.73 L715.78,2027.61 L716.571,2028.49 L717.409,2028.34 L717.631,2027.72 L718.536,2028.41 L718.915,2027.47 L720.433,2027.7 L722.461,2026.59 L722.069,2027.68 L724.287,2027.74 L725.329,2030.14 L729.795,2030.12 L730.778,2033.1 L734.344,2036.25 L737.418,2035.89 L738.323,2037.18 L740.22,2037.25 L740.995,2038.13 L742.605,2038.27 L742.857,2039.82 L744.047,2040.3 L745.503,2040.11 L746.968,2041.09 L747.609,2042.19 L749.592,2041.39 L750.848,2041.96 L752.754,2044.76 L754.595,2049.04 L756.898,2049.74 L757.717,2050.63 L762.544,2051.19 L763.592,2051.89 L768.029,2050.98 L771.365,2052.71 L773.842,2052.38 L774.316,2052.89 L775.021,2052.15 L779.807,2052.03 L783.392,2055.31 L783.558,2058.42 L784.583,2059.17 L785.469,2061.07 L788.806,2062.68 L792.368,2062.6 L795.051,2060.59 L798.311,2060.33 L799.497,2061.26 L800.536,2060.78 L801.651,2059.16 L804.686,2058.47 L805.568,2059.16 L808.103,2059.7 L811.007,2062.17 L812.474,2062.76 L814.621,2062.98 L816.279,2062.53 L817.123,2063.07 L818.388,2062.71 L820.78,2063.32 L821.59,2062.9 L822.93,2063.73 L824.463,2063.52 L834.373,2048.48 L839.851,2053.38 L841.924,2046.34 L842.972,2036.73 L850.157,2037.04 L850.302,2038.84 L853.224,2039.23 L853.508,2036.46 L880.911,2039.44 L881.439,2034.7 L874.162,2009.3 L872.645,2006.88 L872.492,2002.48 L871.608,2001.16 L873.215,1999.11 L871.619,1997.43 L871.376,1996.17 L873.756,1994.19 L874.53,1991.72 L873.717,1991.26 L873.901,1989.78 L873.46,1988.92 L874.781,1988.43 L874.496,1987.43 L873.035,1986.13 L873.294,1984.68 L872.799,1983.34 L874.75,1982.19 L874.542,1980.23 L877.468,1975.69 L876.54,1969.74 L862.937,1971.88 L865.313,1965.63 L913.969,1953.32 L912.011,1948.08 L914.973,1920.38 L921.851,1921.17 L929.902,1913.62 L933.601,1916.55 L936.642,1912.73 L948.042,1913.32 L956.905,1902.17 L964.052,1903.19 L966.211,1900.41 L959.007,1899.22 L959.759,1892.01 L954.1,1891.32 L952.228,1886.02 L962.455,1884.24 L963.375,1886.04 L966.246,1886.5 L967.656,1878.24 L979.392,1879.49 L979.937,1876.17 L970.836,1874.71 L971.775,1862.06 L982.549,1858.64 L991.055,1858.07 L990.899,1866 L989.349,1877.77 L998.848,1879.33 L1006.16,1879.38 L1021.18,1881.44 L1022.84,1863.71 L1034.71,1865.96 L1036.9,1844.05 L1030.42,1843.74 L1016.63,1829.36 L1016.08,1830.34 L1013.97,1828.12 L1017.91,1816.87 L1028.72,1781.71 L1032.22,1748.56 L1036.18,1745 L1024.69,1731.73 L1036.8,1722.14 L1042.38,1728.76 L1036.03,1734.07 L1041.52,1740.92 L1051.21,1732.93 L1034.91,1712.69 L1043.64,1713.58 L1044.65,1712.41 L1048.69,1712.79 L1053.16,1680.12 L1044.48,1678.73 L1046.46,1665.82 L1069.98,1667.7 L1070.57,1664.96 L1086.44,1667.87 L1083.86,1688.33 L1093.97,1689.34 L1096.54,1669.73 L1097.55,1669.89 L1101.26,1656.45 L1102.73,1656.79 L1102.96,1655.91 L1101.53,1655.58 L1102.5,1652.79 L1115.01,1656.56 L1116,1649.57 L1129.5,1650.41 L1130.18,1644.9 L1142.57,1646.39 L1145.43,1627.18 L1157.48,1628.73 L1162.95,1608.71 L1152.33,1607.01 L1153.17,1597.9 L1132.04,1595.86 L1134.63,1570.3 L1139.63,1570.66 L1143.4,1556.86 L1144.96,1549.13 L1116.84,1545.62 L1114.8,1547.88 L1086.51,1521.39 L1089.82,1517.25 L1086.21,1509.26 L1094.38,1499.59 L1095.35,1499.22 L1095.78,1495.92 L1088.85,1490.92 L1088.57,1493.09 L1068.4,1474.59 L1054.3,1491.42 L1019.71,1459.21 L1016.41,1457.05 L1030.92,1445.92 L1014.61,1424.08 L1007.31,1435.63 L1002.82,1445.16 L976.346,1422.24 L974.585,1420.06 L972.484,1414.61 L969.736,1416.25" vector-effect="none" fill-rule="evenodd"/>
   <path d="M1343.8,1042.88 L1343.65,1020.02 L1318.25,1025.76 L1307.98,1032.38 L1308.26,1036.99 L1292.02,1035.06 L1293.93,1054.59 L1292.71,1054.59 L1293.09,1066.68 L1290.56,1072.52 L1277.91,1072.49 L1263.23,1075.81 L1263.21,1092.3 L1261.72,1102.66 L1263.03,1102.9 L1262.66,1108.04 L1240.78,1105.38 L1240.93,1110.08 L1223.49,1113.05 L1221.18,1112.34 L1218.7,1120.73 L1219.13,1123.96 L1219.79,1125.22 L1219.3,1125.75 L1217.16,1134.54 L1217.41,1137.51 L1215.71,1145.25 L1213.69,1151.37 L1208.64,1161.71 L1207.59,1165.78 L1207.34,1178.72 L1207.59,1181.17 L1209.03,1185.51 L1208.84,1186.74 L1209.22,1186.82 L1208.44,1187.03 L1209.23,1187.04 L1209.57,1189.94 L1209.14,1194.13 L1210.17,1194.42 L1210.2,1194.86 L1207.5,1194.85 L1205.76,1198.12 L1205.42,1197.96 L1205.74,1198.17 L1202.83,1204.73 L1197.84,1213.98 L1193.45,1219.5 L1192.83,1219.36 L1192.64,1219.72 L1193.23,1219.74 L1192.5,1220.94 L1186.53,1228.71 L1174.23,1241.9 L1161.86,1253.33 L1143.52,1267.64 L1126.57,1283.55 L1125.78,1284.05 L1124.91,1283.64 L1125.66,1284.08 L1125.94,1284.6 L1124.71,1284.21 L1125.33,1284.57 L1124.86,1285.43 L1099.19,1308.47 L1097.72,1309.91 L1097.93,1310.79 L1097.03,1312.13 L1091.5,1316.67 L1072.27,1330.91 L1056.48,1341.49 L1053.67,1344.1 L1046.05,1348.61 L1037.25,1355.46 L1011.41,1370.94 L1008.45,1373.38 L998.072,1379.37 L981.497,1390.41 L974.675,1397.67 L962.632,1406 L962.765,1410.02 L958.977,1413.68 L929.57,1431.09 L919.01,1436.53 L915.174,1437.93 L916.709,1441.05 L917.61,1439.78 L920.838,1437.78 L921.746,1437.52 L925.457,1438.27 L928.989,1436.29 L929.109,1439.28 L929.673,1440.3 L933.322,1441.05 L934.826,1440.57 L938.24,1437.18 L942.213,1436.47 L944.235,1434.15 L944.802,1431.79 L944.286,1429.89 L943.239,1429.25 L943.379,1428.68 L954.491,1425.74 L956.551,1424.14 L958.366,1419.73 L961.086,1416.25 L969.643,1413.91 L970.095,1414.83 L969.736,1416.25 L972.484,1414.61 L974.585,1420.06 L976.346,1422.24 L1002.82,1445.16 L1007.31,1435.63 L1014.61,1424.08 L1030.92,1445.92 L1016.41,1457.05 L1019.71,1459.21 L1054.3,1491.42 L1068.4,1474.59 L1088.57,1493.09 L1088.85,1490.92 L1095.78,1495.92 L1095.35,1499.22 L1094.38,1499.59 L1086.21,1509.26 L1089.82,1517.25 L1086.51,1521.39 L1114.8,1547.88 L1116.84,1545.62 L1127.02,1546.84 L1128.99,1527.48 L1144.43,1520.15 L1160.84,1535.16 L1160.36,1527.53 L1179.81,1551.17 L1202.87,1530.94 L1204.76,1532.18 L1210.08,1533.59 L1208.17,1540.85 L1205.17,1562.43 L1192.93,1560.35 L1195.08,1565.8 L1196.46,1567.55 L1204.56,1568.47 L1203.2,1578.42 L1202.34,1592.4 L1201.3,1592.79 L1198.91,1592.29 L1201.68,1604.74 L1201.72,1606.57 L1200.05,1608.43 L1231.41,1622.68 L1253.53,1634.39 L1291.73,1639.47 L1326.1,1648.58 L1344.87,1651.93 L1330.21,1721.04 L1368.37,1722.43 L1377.06,1566 L1474.46,1573.94 L1478.94,1524.52 L1481.18,1507.04 L1530.75,1507.63 L1537.32,1469.71 L1563.7,1448.09 L1565.38,1448.04 L1564.54,1436.95 L1566.14,1434.56 L1565.68,1424.27 L1568.67,1424.36 L1568.8,1402.54 L1670.7,1419.82 L1663.81,1399.74 L1712.91,1416.37 L1717.74,1290.22 L1723.64,1236.69 L1726.3,1186.71 L1704.6,1187.51 L1646.99,1186.61 L1591.14,1182.62 L1586.07,1216.95 L1574.93,1273.37 L1549.02,1264.84 L1554.11,1287.1 L1541.18,1284.65 L1537.7,1262.19 L1520.2,1258.53 L1517.13,1258.55 L1512.4,1264.1 L1483.34,1264.32 L1483.32,1258.79 L1476.33,1258.84 L1476.19,1248.65 L1483.53,1248.59 L1483.34,1228.8 L1471.4,1228.68 L1471.25,1129.81 L1453.53,1112.58 L1447.55,1114.46 L1449.83,1119.17 L1440.47,1120.89 L1441.5,1129.35 L1456.49,1126.99 L1456.5,1135.59 L1459.71,1135.32 L1459.97,1141.8 L1456.81,1146.36 L1452,1149.53 L1439.66,1142.93 L1433.72,1155.13 L1428.01,1158.01 L1427.73,1142 L1412.28,1140.86 L1408.38,1113.64 L1410.4,1109.81 L1409.24,1102.09 L1437.99,1100.24 L1435.18,1098.92 L1433.06,1096.04 L1419.68,1097.48 L1411.19,1097.77 L1419.47,1079.36 L1421.62,1068.07 L1409.58,1072.93 L1398.28,1078.39 L1382.66,1078.59 L1385.52,1072.3 L1395.16,1045.8 L1389.03,1044.34 L1389.95,1040 L1388.07,1040.03 L1388.13,1043.24 L1382.37,1043.28 L1381.87,1050.14 L1365.21,1050.11 L1365.04,1048.4 L1349.96,1046.91 L1347.25,1045.23 L1346.47,1043.83 L1343.8,1042.88" vector-effect="none" fill-rule="evenodd"/>
   <path d="M1609.56,582.504 L1588.07,580.602 L1587.76,583.028 L1582.47,582.339 L1582.75,589.863 L1572.72,593.435 L1567.98,590.162 L1566.39,594.639 L1568.8,597.622 L1569.66,601.498 L1567.97,611.637 L1534.28,607.945 L1537.79,578.554 L1529.94,578.08 L1529.07,585.1 L1514.97,583.245 L1514.09,595.555 L1506.35,594.559 L1506.74,591.713 L1491.68,588.76 L1490.17,593.056 L1443.97,587.526 L1443.52,590.704 L1361.96,619.251 L1362.69,619.632 L1362.92,620.659 L1360.94,618.631 L1359.03,618.463 L1358.53,620.826 L1359.85,623.567 L1362.02,624.009 L1363.52,623.179 L1363.75,622.529 L1362.85,621.831 L1363.36,621.196 L1363.14,620.714 L1363.73,621.018 L1363.44,621.766 L1364.51,622.902 L1362.87,624.434 L1363.25,625.415 L1362.91,626.59 L1363.91,628.313 L1363.89,630.377 L1364.72,631.615 L1363.66,633.718 L1364.98,637.026 L1363.59,638.968 L1364.27,640.088 L1363.54,639.808 L1364.09,641.477 L1363.23,642.658 L1363.62,644.158 L1360.85,645.883 L1357.8,646.912 L1353.93,652.356 L1353.85,655.624 L1356.67,663.653 L1357.06,664.297 L1357.73,664.013 L1357.71,665.414 L1389.55,666.587 L1388.66,677.382 L1409.15,678.54 L1417.53,667.456 L1428.93,675.411 L1435.28,675.479 L1439.35,682.388 L1436.49,686.321 L1473.57,686.874 L1477.43,693.779 L1477.21,697.25 L1501.16,706.811 L1498.97,712.385 L1504.17,713.001 L1506.21,711.677 L1513.88,711.531 L1518.48,709.483 L1539.6,712.256 L1540.15,709.403 L1556.09,711.304 L1554.43,731.535 L1555.72,754.11 L1566.48,755.939 L1569.44,746.023 L1584.76,742.779 L1596.72,737.107 L1599,740.763 L1606.07,747.232 L1612.82,752.433 L1622.91,767.605 L1633.26,765.99 L1641.33,766.293 L1641.36,762.516 L1662.01,765.32 L1662.08,764.686 L1668.3,764.776 L1667.32,773.216 L1663.75,774.254 L1655.33,774.248 L1654.83,783.198 L1667.8,783.086 L1667.08,791.321 L1667.65,791.524 L1667.28,799.327 L1673.43,799.621 L1673.82,809.404 L1670.4,809.559 L1670.37,811.931 L1662.88,811.833 L1662.79,818.242 L1728.82,815.697 L1730.05,798.75 L1717.58,798.658 L1717.45,789.764 L1720.34,789.52 L1720.91,781.59 L1725.41,781.317 L1725.12,774.86 L1726.84,771.918 L1728.53,745.462 L1752.06,747.49 L1753.3,719.497 L1756.43,716.086 L1757.85,716.154 L1760,685.491 L1730.45,683.424 L1738.25,667.849 L1690.46,655.263 L1705.84,629.302 L1709.31,608.86 L1692.83,605.562 L1692.33,615.409 L1680.32,609.458 L1680.85,617.815 L1670.68,617.605 L1669.29,641.159 L1669.9,647.806 L1656.07,646.078 L1655.56,646.605 L1652.16,645.842 L1650.76,643.475 L1649.03,642.27 L1649.25,622.677 L1642.19,621.411 L1642.15,620.656 L1634.73,622.279 L1633.77,620.858 L1628.85,618.898 L1629.21,615.983 L1627.89,616.022 L1625.01,604.943 L1624.48,590.655 L1611.5,588.484 L1612.31,586.724 L1608.83,585.181 L1609.56,582.504" vector-effect="none" fill-rule="evenodd"/>
   <path d="M1793.45,650.204 L1793.68,625.367 L1767.67,620.175 L1759.81,687.233 L1757.85,716.154 L1756.43,716.086 L1753.3,719.497 L1752.06,747.49 L1728.53,745.462 L1726.84,771.918 L1725.12,774.86 L1725.41,781.317 L1720.91,781.59 L1720.34,789.52 L1717.45,789.764 L1717.58,798.658 L1730.05,798.75 L1728.82,815.697 L1668.23,817.914 L1668.34,826.897 L1672.34,826.914 L1672.32,835.998 L1663.33,834.55 L1645.3,827.355 L1645.36,866.542 L1665.4,869.995 L1670.32,863.69 L1668.23,906.881 L1655.6,905.527 L1656.02,900.799 L1653.18,894.18 L1652.92,889.164 L1633.11,881.873 L1626.39,902.9 L1630.96,903.14 L1635.32,904.193 L1648.35,914.163 L1631.6,947.881 L1629.36,946.273 L1613.81,979.374 L1622.97,980.703 L1623.38,980.075 L1646.12,987.385 L1662.53,968.429 L1664.49,968.486 L1660.55,973.245 L1665.67,975.058 L1665.92,980 L1674.25,981.063 L1672.9,984.322 L1678.74,984.979 L1676.48,1004.72 L1661.8,1010.11 L1667.01,1030.42 L1669.23,1030.76 L1672.97,1067.07 L1677.25,1067.46 L1677.31,1066.49 L1700.01,1074.82 L1695.48,1094.33 L1677.59,1096.92 L1680.6,1118.64 L1675.31,1116.48 L1674.31,1123.86 L1679.68,1124.9 L1681.26,1135.07 L1688.05,1139.75 L1686.83,1143.2 L1691.12,1146.7 L1689.91,1149.12 L1716.64,1163.13 L1754.36,1159.02 L1756.44,1184.81 L1753.82,1237.98 L1723.64,1236.69 L1717.74,1290.22 L1712.81,1418.99 L1809.54,1414.24 L1812.89,1392.06 L1862.62,1393.21 L1913.25,1395.38 L1929.87,1395.31 L1932.26,1369.66 L1937.75,1326.72 L1998.2,1333.03 L1997.19,1345.22 L1998.75,1345.25 L2000.47,1435.63 L2000.38,1467.72 L2069.04,1464.46 L2112.2,1467.02 L2155.13,1464.86 L2153.57,1484.64 L2158.04,1520.94 L2172.01,1519.2 L2209.06,1518.03 L2210,1438.96 L2217.18,1346.66 L2210.11,1346.13 L2210.29,1150.5 L2041.44,998.496 L2018.8,965.455 L2005.98,964.236 L2000.31,956.885 L1991.14,935.848 L1999.09,936.917 L2001.14,916.28 L1969.53,913.354 L1962.89,898.568 L1936.66,860.719 L1940.26,861.093 L1930.26,846.596 L1930.7,815.493 L1923.94,815.046 L1924.96,804.032 L1919.35,803.449 L1923.14,762.957 L1828,640.484 L1825.26,642.325 L1812.14,658.204 L1809.1,659.638 L1803,664.048 L1799.1,669.647 L1793.45,650.204" vector-effect="none" fill-rule="evenodd"/>
   <path d="M349.384,1711.34 L344.584,1713.83 L343.46,1713.95 L339.453,1717.98 L333.11,1720.93 L330.945,1721.23 L328.393,1720.82 L318.974,1717.96 L311.748,1718.02 L310.156,1719.71 L309.158,1719.77 L307.978,1720.91 L307,1720.88 L307.817,1722.49 L307.623,1728.36 L305.787,1730.83 L298.642,1737.35 L293.578,1739.71 L288.534,1740.82 L282.597,1741.16 L276.905,1740.83 L266.364,1738.68 L265.88,1738.96 L257.783,1763.05 L267.649,1771.04 L285.883,1799.02 L285.113,1854.15 L282.198,1854.14 L288.926,1878.87 L283.163,1911.74 L283.719,1911.87 L283.95,1912.63 L285.197,1912.46 L286.486,1908.92 L286.977,1909.41 L287.087,1911.56 L286.417,1913.27 L287.913,1921.43 L281.375,1922.28 L282.677,1924.23 L282.282,1924.32 L283.908,1925.9 L303.167,1964.86 L293.33,1973.25 L295.045,1976 L295.783,1979.4 L295.567,2001.62 L303.266,2005.72 L303.1,2014.12 L316.254,2025.2 L316.833,2032.88 L320.494,2037.5 L322.657,2037.33 L323.848,2038.03 L326.627,2041.58 L327.833,2042.41 L339.189,2043.98 L344.328,2048.12 L345.969,2048.23 L347.7,2046.73 L348.993,2042.49 L351.427,2042.67 L353.683,2043.96 L354.567,2043.94 L358.283,2039.9 L360.153,2039.67 L362.817,2042.18 L364.363,2042.62 L368.692,2041.82 L371.312,2039.95 L372.406,2040.04 L374.262,2042.04 L374.971,2044.59 L374.917,2047.11 L374.083,2048.56 L370.799,2051.19 L371.036,2053.16 L373.653,2053.8 L377.353,2053.21 L379.836,2053.92 L380.86,2054.8 L382.235,2060.21 L383.252,2062.25 L387.02,2066.67 L388.611,2070.33 L390.27,2071.45 L393.111,2072.09 L402.76,2079.26 L405.804,2079.51 L408.702,2076.69 L410.071,2076.29 L411.257,2076.87 L413.402,2080.8 L414.953,2085.32 L417.079,2088.63 L418.899,2094.8 L435.813,2097.09 L438.84,2098.66 L455.123,2096.27 L461.074,2097.37 L468.852,2101.25 L482.129,2116.66 L521.872,2123.81 L543.126,2142.63 L545.145,2139.84 L548.791,2146.21 L552.072,2145.73 L549.348,2141.54 L549.921,2133.78 L563.229,2148.74 L577.073,2131.66 L556.09,2109.12 L555.637,2103.05 L554.742,2103.1 L554.381,2098.83 L614.984,2093.9 L615.479,2089.89 L588.39,2093.81 L571.26,2093.16 L555.578,2083.28 L549.789,2068.02 L567.748,2063.15 L567.771,2041.21 L567.687,2037.58 L559.546,2021.09 L554.022,2005.05 L566.799,2002 L566.305,1997.13 L566.567,1995.38 L565.2,1993.15 L562.759,1994.93 L555.133,1981.81 L542.992,1991.77 L545.874,2006.55 L547.991,2030.63 L541.988,2031.21 L539.751,2008.47 L538.848,1988.83 L538.241,1988.82 L537.315,1987.12 L535.367,1986.17 L533.477,1983.27 L529.407,1980.95 L526.914,1978.09 L525.314,1977.87 L522.132,1976.08 L522.068,1975.18 L522.731,1974.97 L522.291,1974.36 L522.935,1974 L522.206,1972.84 L522.625,1971.38 L521.863,1970.36 L522.163,1969.71 L521.484,1969.2 L522.197,1968.6 L521.982,1967.65 L523.553,1963.84 L523.079,1963.09 L523.771,1962.63 L523.78,1961.97 L522.947,1961.35 L522.486,1959.7 L521.928,1959.81 L521.596,1959.24 L520.945,1959.54 L520.618,1958.71 L519.878,1958.53 L519.757,1957.69 L518.944,1957.79 L517.871,1956.9 L517.415,1957.16 L517.687,1955.91 L516.91,1955.08 L517.42,1954.17 L515.349,1954.03 L514.602,1952.59 L514.645,1951.47 L513.08,1950.83 L513.614,1949.58 L514.615,1949.3 L514.972,1948.41 L515.868,1948.3 L515.762,1946.81 L514.231,1945.95 L513.063,1944.18 L512.072,1943.81 L511.985,1943.1 L512.846,1942.2 L511.38,1940.58 L511.277,1939.23 L510.245,1938.88 L510.045,1937.24 L510.753,1936.08 L510.623,1935.22 L508.438,1932.06 L507.056,1931.43 L505.69,1929.65 L506.316,1928.1 L504.82,1925.34 L504.623,1924.02 L505.317,1921.24 L504.817,1916.91 L505.218,1914.7 L503.022,1912.03 L503.566,1909.63 L502.806,1908.13 L503.347,1904.81 L505.662,1903.74 L506.696,1902.58 L506.703,1901.64 L504.443,1899.94 L503.545,1895.79 L504.787,1894.52 L508.033,1893.78 L508.479,1892 L507.816,1889.49 L506.453,1888.2 L505.174,1889.47 L506.139,1890.76 L502.111,1890.38 L499.607,1889.19 L495.398,1886.1 L463.421,1902.91 L457.29,1911.96 L445.492,1898.93 L443.804,1895.37 L443.234,1892.57 L451.869,1885.68 L457.207,1882.47 L461.661,1882.24 L463.164,1883.71 L464.901,1883.97 L465.924,1883.85 L467.064,1882.79 L470.757,1883.19 L484.033,1873.59 L485.869,1871.44 L484.046,1866.09 L489.581,1859.8 L488.973,1856.04 L488.024,1853.93 L488.42,1851.45 L491.64,1852.03 L490.983,1850.82 L492.533,1849.93 L492.036,1848.76 L489.937,1848.5 L489.325,1846.63 L488.042,1845.02 L488.456,1842.57 L487.818,1841.77 L500.891,1837.21 L497.685,1836.72 L496.746,1837.49 L494.843,1837.75 L493.616,1836.84 L493.057,1834.65 L493.734,1832.58 L500.185,1827.49 L502.656,1824.82 L502.153,1824.37 L506.791,1813.56 L508.694,1814 L506.45,1808.92 L509.4,1806.33 L512.184,1808.35 L515.562,1809.38 L516.277,1809.16 L526.653,1787.36 L527.946,1786.58 L528.778,1787.42 L529.374,1787.29 L529.591,1788.62 L530.635,1789.56 L530.592,1790.54 L532.222,1791.16 L531.923,1791.57 L531.423,1791.29 L531.063,1792.3 L532.267,1791.94 L534.691,1789.42 L534.401,1788.3 L533.65,1788.17 L533.992,1787.87 L533.772,1786.45 L535.256,1785.9 L536.696,1784.56 L536.496,1783.74 L537.605,1782.57 L538.188,1780.46 L540.942,1780.09 L541.789,1778.8 L540.833,1778.75 L540.185,1779.38 L537.722,1779.04 L531.924,1776.14 L529.82,1776.28 L528.897,1774.79 L527.118,1775.47 L525.37,1775.21 L523.079,1773.73 L522.009,1771.67 L521.212,1771.94 L519.921,1771.08 L519.516,1770.04 L518.852,1771.1 L517.276,1771.81 L513.638,1772.68 L511.209,1772.54 L508.411,1771.22 L507.244,1771.48 L504.844,1770.93 L502.725,1769.75 L500.619,1767.62 L498.342,1769.02 L495.18,1768.51 L492.167,1767.35 L491.1,1767.89 L486.812,1768.32 L484.668,1771.95 L483.777,1770.29 L478.501,1769.56 L475.005,1768.32 L474.026,1767.61 L473.613,1765.17 L474.355,1762.67 L475.499,1760.92 L477.026,1760.67 L479.29,1759.11 L481.183,1759.48 L482.958,1760.55 L484.253,1763.07 L485.044,1763.07 L485.279,1763.93 L484.423,1764.08 L484.647,1765.09 L485.495,1766.65 L487.172,1767.33 L485.566,1767.64 L486.218,1768.21 L485.597,1768.28 L486.055,1768.69 L487.016,1767.76 L491.791,1767.44 L492.814,1765.98 L491.55,1762.9 L492.2,1761.19 L491.74,1759.86 L492.269,1759.09 L491.746,1757.31 L492.036,1756.82 L490.516,1757.02 L488.923,1756.14 L488.285,1754.59 L488.5,1753.19 L487.677,1753.1 L487.333,1752.53 L486.358,1753.22 L484.325,1752.69 L480.867,1750.29 L478.14,1749.52 L477.185,1748.43 L475.644,1748.29 L474.774,1747.29 L473.269,1747 L471.917,1745.93 L466.791,1744.15 L464.236,1741.54 L462.601,1740.9 L460.246,1742.77 L455.734,1743.55 L449.543,1746.31 L447.797,1745.12 L444.133,1744.88 L439.133,1747.81 L439.063,1749.35 L438.384,1750.23 L437.144,1748.73 L436.471,1750.02 L433.367,1749.94 L431.726,1750.85 L430.672,1753.81 L429.004,1755.52 L426.991,1756.34 L425.069,1756.04 L423.411,1756.61 L422.866,1758.11 L422.882,1760.55 L421.985,1761.6 L418.881,1761.79 L414.973,1760.84 L413.33,1763.33 L413.285,1764.59 L412.583,1764 L413.009,1762.77 L411.106,1763.59 L410.257,1761.36 L401.443,1760.86 L397.562,1757.78 L393.909,1756.63 L392.133,1755.49 L391.266,1754.46 L390.394,1751.09 L391.073,1746.45 L389.383,1745.67 L388.542,1750.38 L386.476,1749.81 L385.01,1750.75 L383.421,1750.37 L381.692,1752.84 L380.192,1753.46 L380.069,1753.95 L379.416,1753.83 L378.814,1752.03 L376.544,1750.12 L375.23,1749.71 L375.25,1750.6 L345.316,1743.72 L347.408,1737.65 L348.678,1737.13 L348.211,1736.69 L348.672,1736.71 L346.702,1729.52 L347.596,1727.59 L348.992,1728 L349.205,1726.45 L348.494,1723.83 L347.152,1722.92 L347.288,1722.34 L349.638,1721.51 L350.775,1722.26 L351.281,1721.17 L352.285,1720.89 L352.608,1718.92 L353.256,1718.38 L352.957,1716.33 L350.183,1713.48 L349.384,1711.34" vector-effect="none" fill-rule="evenodd"/>
   <path d="M1417.53,667.456 L1409.15,678.54 L1388.66,677.382 L1389.55,666.587 L1357.71,665.414 L1358.59,669.998 L1360.12,671.906 L1360.43,673.407 L1361.33,674.101 L1362.22,676.496 L1362.56,682.007 L1363.13,684.135 L1364.1,685.184 L1363.64,686.565 L1364.13,687.032 L1362.98,689.068 L1364.17,690.964 L1362.65,694.27 L1363.28,695.082 L1363.23,696.596 L1362.28,697.956 L1360.38,699.049 L1359.29,701.896 L1359.23,704.987 L1359.67,705.605 L1359.17,705.972 L1359.94,708.375 L1359.32,711.13 L1359.55,714.374 L1358.76,716.398 L1357.68,717.147 L1356.26,719.515 L1356.21,720.5 L1357.1,721.106 L1356.74,721.657 L1359.34,727.397 L1359.95,727.184 L1360.42,728.536 L1359.93,728.927 L1362.56,733.271 L1363.15,733.976 L1363.51,733.644 L1363.71,739.107 L1364.23,740.799 L1364.76,741.332 L1365.84,741.07 L1365.63,741.66 L1367.03,742.655 L1367.3,743.885 L1368.39,744.329 L1369.52,746.372 L1370.89,747.248 L1370.43,748.03 L1372.57,751.51 L1374.4,752.253 L1373.89,754.599 L1374.48,755.192 L1373.96,755.356 L1373.94,756.63 L1374.41,757.42 L1374.47,759.637 L1375.23,759.839 L1375.19,760.032 L1372.45,762.976 L1367.72,765.322 L1368.95,767.323 L1369.66,767.386 L1369.24,771.246 L1369.63,772.289 L1370.28,771.579 L1370.99,773.42 L1372.15,773.654 L1372.49,774.33 L1371.71,774.223 L1371.63,774.769 L1373.09,775.956 L1374.73,779.521 L1375.43,780.071 L1375.98,779.55 L1375.79,778.937 L1381.05,779.212 L1381.12,780.123 L1380.45,781.082 L1381.19,781.798 L1380.78,782.015 L1380.94,782.674 L1379.95,783.39 L1379.47,785.394 L1379.99,787.488 L1381.25,789.01 L1383.12,787.719 L1384.01,788.125 L1384.09,789.131 L1394.6,791.574 L1421.07,793.715 L1421.72,786.895 L1426.85,787.4 L1427.04,785.425 L1445.62,788.832 L1448.54,796.933 L1463.09,799.982 L1471.53,803.231 L1479.26,833.023 L1494.44,835.713 L1503.75,833.092 L1516.92,822.511 L1518.4,842.148 L1506.9,860.361 L1515.63,866.785 L1518.93,868.185 L1521.73,867.191 L1529.54,866.511 L1534.6,864.792 L1540,868.882 L1548.8,876.979 L1552.39,881.195 L1540.03,893.986 L1535.43,897.545 L1537.67,898.804 L1551.25,899.581 L1574.87,889.299 L1574.42,892.22 L1598.96,892.796 L1606.34,895.856 L1606.34,894.73 L1616.79,899.923 L1626.39,902.9 L1633.11,881.873 L1652.92,889.164 L1653.18,894.18 L1656.02,900.799 L1655.6,905.527 L1668.23,906.881 L1670.32,863.69 L1665.4,869.995 L1645.36,866.542 L1645.3,827.355 L1663.33,834.55 L1672.32,835.998 L1672.34,826.914 L1668.34,826.897 L1668.23,817.914 L1662.79,818.242 L1662.88,811.833 L1670.37,811.931 L1670.4,809.559 L1673.82,809.404 L1673.43,799.621 L1667.28,799.327 L1667.65,791.524 L1667.08,791.321 L1667.8,783.086 L1654.83,783.198 L1655.33,774.248 L1663.75,774.254 L1667.32,773.216 L1668.3,764.776 L1662.08,764.686 L1662.01,765.32 L1641.36,762.516 L1641.33,766.293 L1633.26,765.99 L1622.91,767.605 L1612.82,752.433 L1606.07,747.232 L1599,740.763 L1596.72,737.107 L1584.76,742.779 L1569.44,746.023 L1566.48,755.939 L1555.72,754.11 L1554.43,731.535 L1556.09,711.304 L1540.15,709.403 L1539.6,712.256 L1518.48,709.483 L1513.88,711.531 L1506.21,711.677 L1504.17,713.001 L1498.97,712.385 L1501.16,706.811 L1477.21,697.25 L1477.43,693.779 L1473.57,686.874 L1436.49,686.321 L1439.35,682.388 L1435.28,675.479 L1428.93,675.411 L1417.53,667.456" vector-effect="none" fill-rule="evenodd"/>
   <path d="M1625.18,1629.99 L1644.33,1461.9 L1628.21,1459.84 L1628.11,1438.29 L1564.54,1436.95 L1565.38,1448.04 L1563.7,1448.09 L1537.32,1469.71 L1530.75,1507.63 L1481.18,1507.04 L1478.94,1524.52 L1474.46,1573.94 L1377.06,1566 L1368.37,1722.43 L1330.21,1721.04 L1344.87,1651.93 L1326.1,1648.58 L1291.73,1639.47 L1253.53,1634.39 L1231.41,1622.68 L1200.05,1608.43 L1201.72,1606.57 L1201.68,1604.74 L1198.91,1592.29 L1201.3,1592.79 L1202.34,1592.4 L1203.2,1578.42 L1204.56,1568.47 L1196.46,1567.55 L1195.08,1565.8 L1192.93,1560.35 L1205.17,1562.43 L1208.17,1540.85 L1210.08,1533.59 L1204.76,1532.18 L1202.87,1530.94 L1179.81,1551.17 L1160.36,1527.53 L1160.84,1535.16 L1144.43,1520.15 L1128.99,1527.48 L1127.02,1546.84 L1144.96,1549.13 L1143.4,1556.86 L1139.63,1570.66 L1134.63,1570.3 L1132.04,1595.86 L1153.17,1597.9 L1152.33,1607.01 L1162.95,1608.71 L1157.48,1628.73 L1145.43,1627.18 L1142.57,1646.39 L1130.18,1644.9 L1129.5,1650.41 L1116,1649.57 L1115.01,1656.56 L1102.5,1652.79 L1101.53,1655.58 L1102.96,1655.91 L1102.73,1656.79 L1101.26,1656.45 L1097.55,1669.89 L1096.54,1669.73 L1093.97,1689.34 L1083.86,1688.33 L1086.44,1667.87 L1070.57,1664.96 L1069.98,1667.7 L1046.46,1665.82 L1044.48,1678.73 L1053.16,1680.12 L1048.69,1712.79 L1044.65,1712.41 L1043.64,1713.58 L1034.91,1712.69 L1051.21,1732.93 L1041.52,1740.92 L1036.03,1734.07 L1042.38,1728.76 L1036.8,1722.14 L1024.69,1731.73 L1036.18,1745 L1032.22,1748.56 L1028.72,1781.71 L1017.91,1816.87 L1013.97,1828.12 L1016.08,1830.34 L1016.63,1829.36 L1030.42,1843.74 L1036.9,1844.05 L1034.71,1865.96 L1028.37,1864.77 L1029.13,1873.13 L1045.87,1874.63 L1044.48,1889.95 L1061.57,1891.66 L1062.23,1890.9 L1063.24,1891.56 L1070.17,1880.01 L1084.69,1886.76 L1081.18,1892.81 L1078.08,1904.07 L1072.62,1901.55 L1067.68,1919.63 L1077.71,1920.25 L1098.6,1919.85 L1100.96,1902.91 L1107.06,1903.68 L1120.75,1903.92 L1147.75,1903.55 L1147,1917.66 L1145.61,1929.97 L1168.06,1932.67 L1170.31,1905.44 L1173.63,1878.99 L1222.15,1879.3 L1222.15,1788.51 L1292.69,1787.61 L1293.28,1771.99 L1307.84,1772.61 L1305.27,1794.98 L1357.52,1794.02 L1356.71,1786.27 L1359.72,1786.29 L1359.98,1770.9 L1359.33,1766.17 L1392.64,1765.89 L1390.18,1791.72 L1396.82,1973.66 L1488.06,1972.67 L1488.44,1994.25 L1510.18,1993.93 L1510.36,1976.2 L1616.08,1972.62 L1617.35,1951.66 L1618.93,1951.68 L1621.2,1843.54 L1607.48,1843.13 L1612.37,1791.68 L1574.03,1793.97 L1575.48,1785.8 L1562.24,1786.64 L1562.88,1784.42 L1565.15,1763 L1558.37,1763.71 L1558.81,1731.58 L1540.29,1731.11 L1543.3,1711.65 L1536.26,1710.28 L1542.44,1676.72 L1555.18,1678.6 L1557.27,1657.26 L1578.26,1659.34 L1579.98,1643.4 L1564.16,1641.97 L1566.19,1616.9 L1591.41,1619.36 L1590.68,1626.2 L1625.18,1629.99" vector-effect="none" fill-rule="evenodd"/>
   <path d="M1998.2,1333.03 L1937.75,1326.72 L1932.26,1369.66 L1929.87,1395.31 L1913.25,1395.38 L1862.62,1393.21 L1812.89,1392.06 L1809.54,1414.24 L1712.81,1418.99 L1712.91,1416.37 L1663.81,1399.74 L1670.7,1419.82 L1568.8,1402.54 L1568.67,1424.36 L1565.68,1424.27 L1566.14,1434.56 L1564.54,1436.95 L1628.11,1438.29 L1628.21,1459.84 L1644.33,1461.9 L1625.18,1629.99 L1590.68,1626.2 L1591.41,1619.36 L1566.19,1616.9 L1564.16,1641.97 L1579.98,1643.4 L1578.26,1659.34 L1557.27,1657.26 L1555.18,1678.6 L1542.44,1676.72 L1536.26,1710.28 L1543.3,1711.65 L1540.29,1731.11 L1558.81,1731.58 L1558.37,1763.71 L1565.15,1763 L1562.88,1784.42 L1562.24,1786.64 L1575.48,1785.8 L1574.03,1793.97 L1612.37,1791.68 L1607.48,1843.13 L1621.2,1843.54 L1618.93,1951.68 L1617.35,1951.66 L1616.08,1972.62 L1510.36,1976.2 L1510.18,1993.93 L1517.87,1993.85 L1518.6,2035.3 L1512.28,2228.45 L1587.75,2227.9 L1712.9,2228.95 L1811.87,2228.29 L1990.39,2229.22 L2207.08,2228.57 L2206.79,2136.46 L2172.68,2136.13 L2171.7,2110.39 L2172.13,2091.4 L2199.91,2093.11 L2199.68,2066.81 L2211.5,2066.93 L2211.74,2050.4 L2174.85,2049.84 L2176.26,2008.84 L2212.58,2008.04 L2212.7,1955.66 L2203.05,1957.56 L2207.11,1909.24 L2219.38,1909.35 L2215.66,1847.68 L2226.45,1847.48 L2223.74,1804.11 L2208.02,1803.82 L2208.41,1737.81 L2207.34,1620.89 L2206.83,1613.03 L2204.52,1601.37 L2211.74,1599.49 L2211.39,1570.16 L2209.06,1518.03 L2172.01,1519.2 L2158.04,1520.94 L2153.57,1484.64 L2155.13,1464.86 L2112.2,1467.02 L2069.04,1464.46 L2000.38,1467.72 L2000.47,1435.63 L1998.75,1345.25 L1997.19,1345.22 L1998.2,1333.03" vector-effect="none" fill-rule="evenodd"/>
   <path d="M1390.18,1791.72 L1392.64,1765.89 L1359.33,1766.17 L1359.98,1770.9 L1359.72,1786.29 L1356.71,1786.27 L1357.52,1794.02 L1305.27,1794.98 L1307.84,1772.61 L1293.28,1771.99 L1292.69,1787.61 L1222.15,1788.51 L1222.15,1879.3 L1173.63,1878.99 L1170.31,1905.44 L1168.06,1932.67 L1145.61,1929.97 L1147,1917.66 L1147.75,1903.55 L1120.75,1903.92 L1107.06,1903.68 L1100.96,1902.91 L1098.6,1919.85 L1077.71,1920.25 L1067.68,1919.63 L1072.62,1901.55 L1078.08,1904.07 L1081.18,1892.81 L1084.69,1886.76 L1070.17,1880.01 L1063.24,1891.56 L1062.23,1890.9 L1061.57,1891.66 L1044.48,1889.95 L1045.87,1874.63 L1029.13,1873.13 L1028.37,1864.77 L1022.84,1863.71 L1021.18,1881.44 L1006.16,1879.38 L998.848,1879.33 L989.349,1877.77 L990.899,1866 L991.055,1858.07 L982.549,1858.64 L971.775,1862.06 L970.836,1874.71 L979.937,1876.17 L979.392,1879.49 L967.656,1878.24 L966.246,1886.5 L963.375,1886.04 L962.455,1884.24 L952.228,1886.02 L954.1,1891.32 L959.759,1892.01 L959.007,1899.22 L966.211,1900.41 L964.052,1903.19 L956.905,1902.17 L948.042,1913.32 L936.642,1912.73 L933.601,1916.55 L929.902,1913.62 L921.851,1921.17 L914.973,1920.38 L912.011,1948.08 L913.969,1953.32 L865.313,1965.63 L862.937,1971.88 L876.54,1969.74 L877.468,1975.69 L874.542,1980.23 L874.75,1982.19 L872.799,1983.34 L873.294,1984.68 L873.035,1986.13 L874.496,1987.43 L874.781,1988.43 L873.46,1988.92 L873.901,1989.78 L873.717,1991.26 L874.53,1991.72 L873.756,1994.19 L871.376,1996.17 L871.619,1997.43 L873.215,1999.11 L871.608,2001.16 L872.492,2002.48 L872.645,2006.88 L874.162,2009.3 L881.439,2034.7 L880.911,2039.44 L853.508,2036.46 L853.224,2039.23 L850.302,2038.84 L850.157,2037.04 L842.972,2036.73 L841.924,2046.34 L839.851,2053.38 L834.373,2048.48 L824.463,2063.52 L825.489,2063.78 L825.953,2065.59 L827.562,2066 L827.094,2069.35 L829.29,2070.61 L829.261,2071.23 L830.746,2072.49 L835.954,2073.39 L844.504,2077.46 L844.307,2077.98 L847.21,2081.93 L849.711,2083.07 L851.685,2085.57 L852.709,2085.9 L852.539,2087.02 L854.238,2089.44 L864.326,2095.11 L868.014,2098.14 L872.216,2099.33 L875.204,2102.36 L875.215,2104.9 L876.716,2106.27 L877.496,2108.45 L878.309,2108.86 L878.146,2111.41 L879.237,2112.9 L881.856,2115.12 L884.329,2116.05 L884.784,2116.8 L890.868,2117.95 L892.014,2119.48 L892.671,2119.22 L892.579,2120.12 L894.083,2120.74 L894.867,2122.18 L896.245,2121.8 L898.117,2122.61 L898.901,2121.47 L899.551,2121.91 L902.001,2121.39 L902.897,2122.47 L904.291,2121.27 L905.876,2122.5 L906.982,2120.58 L909.053,2121.31 L909.142,2120.11 L910.586,2120.03 L912.015,2121.52 L913.176,2121.49 L913.229,2122.04 L915.1,2123.54 L917.32,2122.75 L918.059,2121.05 L919.644,2122.25 L920.914,2122.26 L923.359,2120.14 L941.068,2122.07 L937.932,2127.58 L937.005,2130.41 L948.402,2133.52 L949.998,2117.33 L960.853,2121.61 L956.648,2129.94 L1040.66,2130.49 L1040.84,2171.35 L1035.86,2170.81 L1035.77,2188.61 L1040.84,2188.7 L1040.85,2228.66 L1295.78,2228.23 L1389.03,2229.04 L1439.17,2230.4 L1489.9,2228.63 L1512.28,2228.45 L1518.6,2035.3 L1517.87,1993.85 L1488.44,1994.25 L1488.06,1972.67 L1396.82,1973.66 L1390.18,1791.72" vector-effect="none" fill-rule="evenodd"/>
   <path d="M1277.78,953.063 L1267.02,961.479 L1242.91,950.88 L1237.96,958.566 L1233.73,962.35 L1231.58,967.377 L1230.1,969.557 L1228.4,970.877 L1225.04,975.445 L1219.14,980.742 L1219.05,983.222 L1215.76,983.351 L1216.88,983.629 L1216.9,984.188 L1218.27,983.647 L1218.39,984.358 L1218.51,983.652 L1219.04,983.672 L1219.2,985.267 L1219.75,985.308 L1219.96,986.091 L1220.65,985.894 L1221.09,986.997 L1221.32,989.65 L1219.73,994.974 L1195.82,994.642 L1197.92,994.84 L1198.11,996.534 L1199.45,996.582 L1199.64,994.867 L1216.87,995.106 L1216.82,997.974 L1217.42,998.297 L1218.9,995.154 L1219.59,995.112 L1219.54,998.57 L1218.85,998.645 L1223.95,998.95 L1227.77,1001.35 L1229.66,1004.34 L1226.7,1005.87 L1226.28,1007.02 L1226.54,1007.57 L1226.78,1005.95 L1229.37,1004.73 L1230.14,1005.08 L1232.53,1011.18 L1232.75,1014.69 L1232.19,1019.32 L1229.2,1030.73 L1223.26,1044.73 L1219.03,1053.01 L1216,1057.22 L1217.39,1058.33 L1219.54,1058.2 L1220.96,1063.1 L1220.3,1068.76 L1218.55,1072.86 L1218.9,1075.25 L1216.52,1080.65 L1217.36,1081.87 L1217.19,1083.37 L1217.52,1081.96 L1218.12,1083.07 L1217.59,1083.2 L1218.11,1083.3 L1217.97,1085.31 L1216.74,1089.39 L1217.48,1091.16 L1217.43,1093.34 L1218.42,1095.5 L1219.94,1096.65 L1221.06,1099.32 L1221.69,1107.94 L1221.18,1112.34 L1223.49,1113.05 L1240.93,1110.08 L1240.78,1105.38 L1262.66,1108.04 L1263.03,1102.9 L1261.72,1102.66 L1263.21,1092.3 L1263.23,1075.81 L1277.91,1072.49 L1290.56,1072.52 L1293.09,1066.68 L1292.71,1054.59 L1293.93,1054.59 L1292.02,1035.06 L1308.26,1036.99 L1307.98,1032.38 L1318.25,1025.76 L1343.65,1020.02 L1344.88,1005.39 L1329.38,1006.63 L1317.1,995.099 L1316.43,993.918 L1314.32,998.847 L1308.67,997.58 L1311.72,991.698 L1300.72,993.103 L1300.01,991.027 L1273.41,977.582 L1273.68,974.057 L1275.74,971.278 L1275.84,967.257 L1277.78,953.063" vector-effect="none" fill-rule="evenodd"/>
  </g>
  <g font-family="MS Shell Dlg 2" transform="matrix(0.999751,0,0,0.999751,1.20915e-15,0)" fill="none" font-size="34.375" stroke-linejoin="bevel" stroke="#000000" font-style="normal" stroke-width="1" font-weight="400" stroke-linecap="square" stroke-opacity="1"/>
  <g font-family="MS Shell Dlg 2" transform="matrix(11.8081,0,0,11.8081,1.20915e-15,0)" fill="none" font-size="34.375" stroke-linejoin="bevel" stroke="#000000" font-style="normal" stroke-width="1" font-weight="400" stroke-linecap="square" stroke-opacity="1"/>
  <g font-family="MS Shell Dlg 2" transform="matrix(11.8081,0,0,11.8081,1.20915e-15,0)" fill="none" font-size="34.375" stroke-linejoin="bevel" stroke="#000000" font-style="normal" stroke-width="1" font-weight="400" stroke-linecap="square" stroke-opacity="1"/>
  <g font-family="MS Shell Dlg 2" transform="matrix(11.8081,0,0,11.8081,1.20915e-15,0)" fill="none" font-size="34.375" stroke-linejoin="bevel" stroke="#000000" font-style="normal" stroke-width="1" font-weight="400" stroke-linecap="square" stroke-opacity="1"/>
  <g font-family="MS Shell Dlg 2" transform="matrix(1,0,0,1,0,0)" fill="none" font-size="34.375" stroke-linejoin="bevel" stroke="#000000" font-style="normal" stroke-width="1" font-weight="400" stroke-linecap="square" stroke-opacity="1"/>
  <g font-family="MS Shell Dlg 2" transform="matrix(11.8081,0,0,11.8081,1.20915e-15,0)" fill="none" font-size="34.375" stroke-linejoin="bevel" stroke="#000000" font-style="normal" stroke-width="1" font-weight="400" stroke-linecap="square" stroke-opacity="1"/>
  <g font-family="MS Shell Dlg 2" transform="matrix(11.8081,0,0,11.8081,1.20915e-15,0)" fill="none" font-size="34.375" stroke-linejoin="bevel" stroke="#000000" font-style="normal" stroke-width="1" font-weight="400" stroke-linecap="square" stroke-opacity="1"/>
  <g font-family="MS Shell Dlg 2" transform="matrix(1,0,0,1,0,0)" fill="none" font-size="34.375" stroke-linejoin="bevel" stroke="#000000" font-style="normal" stroke-width="1" font-weight="400" stroke-linecap="square" stroke-opacity="1"/>
 </g>
</svg>
